<svg xmlns="http://www.w3.org/2000/svg" viewBox="0 0 64 64" role="img" aria-label="Making Money on Viber favicon">
  <defs>
    <linearGradient id="bg" x1="12" y1="8" x2="52" y2="56" gradientUnits="userSpaceOnUse">
      <stop offset="0" stop-color="#8a78ff"/>
      <stop offset="1" stop-color="#5f4ce0"/>
    </linearGradient>
  </defs>
  <rect width="64" height="64" rx="16" fill="url(#bg)"/>
  <path fill="#ffffff" fill-opacity=".18" d="M46 14c4.4 0 8 3.6 8 8v10c0 4.4-3.6 8-8 8h-3.2L35 47.3V40H26c-4.4 0-8-3.6-8-8V22c0-4.4 3.6-8 8-8h20Z"/>
  <path fill="#ffffff" d="M34.9 16h-5.1v4.1c-5 .6-8 3.8-8 8 0 4.7 3.3 6.7 8.4 8l2.1.5c3 .7 4.2 1.4 4.2 3 0 1.8-1.7 3-4.5 3-3.2 0-5.3-1.2-7.3-3.1l-3.8 4.2c2.3 2.4 5.3 3.8 8.9 4.2V52h5.1v-4.1c5.3-.6 8.5-3.9 8.5-8.4 0-4.8-3-6.8-8.6-8.1l-2.1-.5c-2.8-.7-4.1-1.2-4.1-2.8 0-1.5 1.4-2.7 4-2.7 2.5 0 4.2.8 6 2.2l3.3-4.3c-2.1-1.9-4.7-3-7-3.3V16Z"/>
</svg>
